<?xml version="1.0" standalone="no"?>
<!DOCTYPE svg PUBLIC "-//W3C//DTD SVG 20010904//EN"
 "http://www.w3.org/TR/2001/REC-SVG-20010904/DTD/svg10.dtd">
<svg version="1.0" xmlns="http://www.w3.org/2000/svg"
 width="920.000000pt" height="863.000000pt" viewBox="0 0 920.000000 863.000000"
 preserveAspectRatio="xMidYMid meet">

<g transform="translate(0.000000,863.000000) scale(0.100000,-0.100000)"
fill="#000000" stroke="none">
<path d="M4465 8374 c-956 -61 -1820 -412 -2515 -1021 -811 -712 -1301 -1663
-1412 -2743 -17 -161 -17 -629 0 -790 120 -1165 684 -2185 1607 -2905 363
-282 831 -528 1275 -667 837 -262 1694 -262 2530 0 506 159 967 412 1410 776
112 91 426 406 525 526 531 643 848 1390 941 2223 22 190 25 655 6 837 -105
1002 -523 1877 -1228 2571 -160 157 -255 240 -409 356 -602 453 -1285 725
-2040 814 -163 19 -551 32 -690 23z m175 -553 l0 -469 -97 -6 c-161 -12 -353
-34 -436 -52 -43 -8 -81 -13 -84 -11 -3 3 -22 -1 -44 -8 -21 -8 -69 -21 -106
-31 -38 -9 -72 -19 -76 -21 -5 -3 3 -17 17 -32 15 -15 24 -30 20 -33 -3 -3 -1
-9 5 -13 6 -3 11 -2 11 4 0 5 8 8 18 6 9 -1 23 2 30 8 6 5 12 6 12 1 0 -5 6 0
14 11 7 11 13 23 12 26 0 4 7 16 17 26 9 11 15 22 12 25 -3 2 2 5 10 5 12 0
10 -6 -7 -24 -12 -12 -18 -23 -13 -23 4 0 0 -9 -11 -21 -18 -20 -18 -20 11
-14 17 4 41 6 54 6 13 -1 29 3 35 8 28 23 394 70 549 71 l47 0 0 -470 c0 -441
-1 -470 -17 -470 -39 0 -291 -30 -330 -38 -26 -6 -45 -6 -51 0 -6 6 -15 4 -24
-6 -8 -8 -33 -18 -54 -21 -42 -8 -89 -33 -80 -42 3 -4 -1 -14 -9 -23 -14 -15
-13 -19 5 -35 11 -10 20 -13 20 -7 0 6 -5 14 -11 17 -7 5 -5 13 5 24 9 10 13
20 10 23 -3 3 -1 9 4 12 14 8 9 -19 -6 -37 -11 -12 -10 -17 0 -23 21 -13 40
-13 35 -1 -3 7 -11 11 -18 9 -10 -3 -9 1 3 15 8 10 14 25 13 34 -2 9 3 16 11
16 10 0 11 -4 3 -14 -6 -7 -8 -13 -4 -13 4 0 2 -6 -4 -14 -9 -10 -8 -16 4 -26
11 -9 20 -9 45 3 16 9 32 11 35 7 3 -5 12 -7 20 -3 10 3 15 -1 15 -13 0 -11 5
-26 10 -34 6 -10 8 -4 4 22 l-6 36 53 11 c87 17 207 31 265 31 l54 0 0 -469 0
-469 -22 -5 c-13 -3 -59 -9 -103 -13 -82 -7 -110 -18 -98 -38 5 -8 2 -7 -8 1
-11 9 -25 9 -57 0 -23 -6 -42 -15 -42 -20 0 -4 6 -5 13 -1 9 6 9 4 0 -6 -10
-11 -9 -18 7 -35 16 -17 17 -22 6 -22 -8 0 -14 5 -13 11 1 6 -3 10 -9 9 -6 -1
-11 8 -10 20 1 17 -4 21 -19 19 -11 -2 -27 -10 -36 -18 -9 -8 -19 -11 -24 -7
-4 5 -6 1 -2 -9 3 -9 -2 -23 -14 -34 -13 -12 -16 -21 -9 -28 6 -6 4 -16 -7
-28 -9 -10 -11 -18 -5 -18 6 0 14 5 17 10 4 6 10 8 15 5 9 -6 26 15 26 33 -1
6 -5 11 -11 10 -5 -2 -9 -7 -7 -11 1 -5 -2 -6 -8 -2 -8 5 -7 11 1 21 9 11 15
11 25 3 8 -6 11 -15 8 -20 -8 -13 35 -4 74 16 18 9 38 18 45 19 7 1 17 4 22 7
6 3 28 6 50 5 22 -1 45 4 50 11 6 7 41 15 79 19 l68 7 -3 -436 c-4 -493 4
-456 -83 -357 -22 25 -110 114 -195 198 -303 298 -340 336 -335 344 11 18 32
3 84 -62 30 -37 57 -66 58 -65 2 2 -21 33 -52 69 -52 62 -55 68 -43 89 8 12
13 43 12 69 0 26 2 45 6 42 4 -2 12 4 18 13 6 10 11 13 11 7 0 -5 -5 -15 -12
-22 -16 -16 -19 -84 -4 -79 6 2 11 17 11 34 0 16 6 37 12 45 7 8 9 19 5 23 -4
5 -1 5 6 1 10 -6 11 -11 0 -23 -16 -19 -19 -65 -4 -60 6 2 11 13 11 25 0 11 6
27 12 33 10 10 9 17 -5 33 -9 11 -12 16 -5 13 6 -4 14 -3 18 3 12 20 -17 10
-63 -22 -53 -36 -73 -54 -67 -60 2 -2 -9 -4 -24 -3 -31 0 -12 -21 -420 475
-96 116 -179 214 -185 217 -6 4 -4 -2 5 -13 9 -10 42 -50 74 -89 32 -38 67
-81 79 -95 12 -14 50 -61 86 -105 36 -44 73 -89 82 -100 135 -160 248 -302
248 -312 0 -8 -6 -16 -13 -19 -8 -3 -151 134 -345 328 l-332 332 48 43 c26 23
52 42 59 43 7 0 18 10 24 23 7 12 13 22 13 23 1 0 -5 8 -11 16 -11 12 -9 18 7
33 11 10 20 14 20 10 0 -5 12 2 28 16 l27 24 -23 -26 c-21 -24 -22 -27 -6 -40
15 -12 17 -12 12 1 -3 8 3 26 13 39 13 16 16 28 9 40 -5 11 -5 23 1 32 9 12
10 12 6 -1 -2 -8 -1 -22 4 -31 6 -12 2 -25 -12 -43 -11 -14 -18 -26 -15 -26 9
0 118 71 144 94 12 11 22 16 22 11 0 -4 9 0 20 10 11 10 20 15 20 11 0 -3 11
1 24 9 24 16 27 29 13 51 -3 6 2 19 13 29 11 10 17 22 13 28 -4 6 -1 7 6 2 9
-5 7 -13 -9 -30 -14 -15 -18 -25 -11 -30 6 -3 9 -11 6 -16 -8 -12 2 -11 26 2
11 5 17 14 15 18 -3 5 3 16 14 26 11 10 17 21 15 25 -3 4 2 13 10 20 8 7 12
17 8 24 -3 6 -3 8 2 4 4 -4 15 -2 24 4 9 7 3 -2 -13 -20 -17 -18 -26 -32 -21
-32 5 0 -2 -11 -14 -24 -14 -15 -19 -26 -12 -31 6 -3 11 -1 11 6 0 7 3 9 7 6
3 -4 17 0 30 8 13 9 23 13 23 10 0 -3 9 -1 20 5 11 6 18 15 16 19 -3 4 6 18
19 31 13 13 22 28 18 34 -3 6 7 -1 24 -17 16 -15 33 -24 36 -20 7 7 30 13 55
15 16 2 15 13 -3 28 -12 10 -13 16 -3 27 10 12 21 43 15 43 -55 -4 -401 -156
-419 -184 -4 -6 -8 -8 -8 -3 0 9 -115 -62 -202 -126 -37 -27 -65 -53 -62 -58
3 -5 10 -7 15 -3 5 3 6 10 3 16 -4 6 -2 8 4 4 6 -3 15 2 21 11 6 10 11 13 11
7 0 -16 -47 -57 -54 -46 -7 11 -24 11 -42 0 -6 -4 -35 22 -65 60 -311 378
-495 600 -512 617 l-21 20 15 -20 c58 -73 257 -315 451 -549 65 -78 118 -144
118 -148 0 -9 -100 -91 -105 -87 -41 36 -655 655 -655 660 0 12 140 138 169
152 14 6 24 16 22 21 -1 5 4 13 13 18 9 5 14 13 11 17 -2 5 2 14 10 21 12 10
13 16 3 29 -11 14 -11 14 4 3 14 -11 18 -11 26 5 5 10 8 30 7 46 -1 15 0 25 3
22 3 -3 13 2 23 11 13 12 19 12 25 3 4 -7 3 -10 -3 -6 -15 9 -37 -20 -39 -50
0 -13 -14 -37 -29 -53 -41 -43 -24 -37 43 14 55 42 62 53 63 101 0 16 2 17 9
5 5 -8 5 -21 -1 -32 -13 -24 12 -25 33 0 16 19 18 43 3 40 -5 -2 -9 -7 -7 -11
1 -5 -2 -6 -8 -2 -8 5 -7 11 1 21 6 8 14 12 17 9 3 -3 11 0 19 7 11 9 11 14
-3 29 -16 18 -18 18 -45 -2 -16 -11 -27 -24 -24 -29 3 -5 1 -11 -5 -15 -6 -4
-7 -11 -4 -17 4 -7 2 -8 -5 -4 -9 6 -9 11 0 22 6 8 8 14 5 14 -7 0 -97 -59
-106 -69 -3 -4 -22 -19 -43 -34 -20 -16 -35 -31 -33 -35 2 -4 -9 -7 -25 -7
-25 0 -43 16 -124 115 -52 63 -95 118 -95 122 0 11 124 108 235 183 95 65 140
99 105 80 -37 -21 -144 -95 -247 -172 l-113 -85 83 -100 c45 -56 92 -113 104
-127 12 -14 22 -31 23 -37 0 -9 -150 -146 -168 -152 -9 -3 -662 646 -662 658
0 12 119 121 258 237 681 564 1582 903 2455 921 l87 2 0 -469z m480 449 c775
-89 1486 -378 2085 -849 135 -106 325 -277 325 -292 0 -10 -652 -659 -661
-659 -4 0 -36 26 -71 58 -225 203 -433 347 -697 481 -390 199 -781 302 -1273
337 l-98 6 0 471 0 470 153 -7 c83 -4 190 -11 237 -16z m-171 -1020 c300 -23
653 -111 941 -235 292 -125 631 -345 850 -551 l65 -62 -45 -48 c-25 -27 -174
-177 -332 -333 l-287 -284 -65 54 c-36 30 -65 59 -65 64 -1 6 55 81 124 168
116 148 130 167 122 167 -2 0 -59 -72 -128 -160 -88 -113 -129 -158 -140 -154
-20 6 -71 -58 -63 -80 4 -12 -82 -134 -151 -213 -5 -6 -21 -26 -35 -44 -14
-18 -52 -67 -85 -109 -33 -41 -65 -82 -72 -90 -7 -8 -51 -64 -98 -123 -48 -60
-85 -110 -83 -112 3 -4 99 115 346 430 211 268 195 252 223 232 13 -9 43 -33
67 -54 l43 -38 -336 -335 -335 -335 -22 22 c-18 18 -19 24 -8 38 7 8 10 18 7
22 -4 3 -9 -2 -13 -11 -4 -10 -13 -15 -24 -11 -24 7 -79 -60 -63 -76 8 -8 -19
-48 -86 -132 -54 -67 -101 -129 -105 -137 -10 -20 -1 -10 112 133 52 64 99
117 107 117 7 0 17 -6 23 -13 11 -12 -112 -141 -383 -401 -60 -58 -126 -125
-145 -149 -19 -24 -44 -48 -56 -54 l-22 -10 -2 428 -1 429 33 0 c33 0 128 -18
207 -40 40 -10 42 -13 37 -38 -5 -22 -4 -24 4 -9 6 9 17 17 24 17 14 0 51 78
41 88 -11 11 -182 51 -245 57 -36 4 -73 9 -82 11 -17 5 -18 36 -18 475 l0 469
58 0 c155 -1 518 -78 584 -125 12 -8 25 -15 29 -15 3 0 14 21 24 46 14 37 15
48 5 54 -11 7 -9 20 9 66 12 31 20 59 18 61 -3 2 -14 -23 -27 -57 -23 -62 -31
-67 -74 -50 -33 12 -194 54 -266 69 -50 11 -301 41 -342 41 -17 0 -18 29 -18
470 l0 470 48 0 c26 0 103 -5 171 -10z m-1014 -20 c-8 -9 -13 -19 -10 -22 3
-3 -3 -11 -12 -19 -16 -13 -17 -12 -4 4 7 9 10 17 6 17 -4 0 -2 6 4 13 6 8 9
16 6 19 -3 2 2 5 10 5 13 0 13 -2 0 -17z m-33 -4 c-7 -11 -12 -32 -14 -53 -1
-7 -5 -10 -10 -7 -4 3 -4 13 1 22 4 9 7 24 6 33 -2 9 3 16 11 16 7 0 10 -5 6
-11z m-60 -8 c-9 -9 -8 -16 5 -30 9 -10 14 -18 11 -18 -2 0 -15 12 -29 27 -13
14 -19 23 -12 19 6 -3 14 -2 18 4 3 5 9 10 13 10 3 0 1 -5 -6 -12z m25 -7 c0
-11 -5 -18 -9 -15 -4 3 -5 11 -1 19 7 21 12 19 10 -4z m119 4 c-1 -8 -8 -21
-16 -28 -10 -10 -11 -9 -4 3 5 8 9 18 10 23 3 14 4 17 8 17 2 0 3 -7 2 -15z
m-1882 -484 c303 -303 328 -331 315 -348 -7 -10 -42 -49 -77 -88 -318 -348
-573 -828 -692 -1300 -56 -222 -80 -378 -96 -627 l-6 -108 -469 0 -469 0 0 93
c0 186 36 481 86 717 151 704 494 1368 981 1898 46 50 88 92 91 92 4 0 155
-148 336 -329z m5564 264 c432 -461 760 -1038 933 -1640 97 -337 159 -730 159
-1007 l0 -88 -470 0 -470 0 0 38 c0 87 -32 376 -56 500 -109 571 -383 1119
-764 1527 -25 28 -50 56 -54 64 -6 9 84 106 320 342 181 181 332 329 335 329
4 0 34 -29 67 -65z m-4692 -187 c4 -7 3 -10 -1 -5 -5 4 -16 0 -25 -8 -14 -13
-17 -13 -17 0 0 8 4 12 8 9 4 -2 10 0 14 6 8 13 12 13 21 -2z m-75 -81 c-6 -8
-9 -16 -6 -19 3 -2 -7 -15 -22 -29 -15 -13 -22 -17 -15 -8 6 9 8 19 4 23 -4 4
-2 6 3 4 6 -1 10 2 10 7 0 6 -4 9 -8 7 -5 -1 -6 2 -2 8 3 6 10 8 15 5 5 -3 11
-1 15 5 3 5 9 10 12 10 3 0 0 -6 -6 -13z m-85 -31 c0 -14 -3 -23 -7 -20 -6 3
-6 22 0 42 3 10 7 -2 7 -22z m-34 -18 c-8 -8 -8 -15 -2 -23 7 -9 5 -16 -7 -26
-15 -11 -16 -11 -6 1 10 11 9 18 -5 34 -9 11 -11 16 -4 12 7 -4 15 -1 18 9 4
9 9 13 12 10 3 -3 0 -11 -6 -17z m-32 -47 c-5 -10 -6 -22 -2 -26 4 -5 1 -5 -6
-1 -8 5 -9 13 -2 25 5 10 6 22 2 26 -4 5 -1 5 6 1 8 -5 9 -13 2 -25z m85 -631
c179 -178 325 -326 325 -329 0 -2 -24 -31 -53 -65 -81 -92 -171 -217 -234
-325 -90 -154 -83 -144 -99 -130 -12 10 -12 7 1 -17 12 -24 65 -62 87 -64 4 0
11 15 17 34 26 97 305 495 346 496 6 0 158 -148 338 -328 l329 -329 -51 -66
c-27 -37 -62 -88 -77 -114 -15 -27 -36 -56 -46 -66 -26 -26 -23 -30 29 -56 48
-23 62 -19 63 21 0 17 109 186 133 206 10 9 70 -46 289 -266 339 -341 329
-330 315 -335 -7 -2 3 -12 21 -21 39 -20 38 -24 -8 -30 -78 -11 -280 -49 -277
-53 6 -6 191 -5 217 1 14 4 31 2 38 -2 14 -9 -5 -29 -362 -390 l-221 -222 -32
37 c-18 21 -38 50 -44 66 -6 15 -15 27 -20 27 -19 0 -89 -58 -77 -63 9 -4 1
-16 -22 -38 l-35 -31 36 25 c19 14 40 22 45 19 5 -4 27 -29 48 -55 l39 -49
-334 -334 -333 -333 -39 42 c-154 168 -309 424 -391 640 -38 100 -85 276 -90
330 -2 26 -5 50 -7 52 -3 2 -24 1 -48 -2 -30 -4 -45 -11 -48 -24 -3 -10 -15
-20 -27 -22 -13 -2 -10 -4 8 -3 29 1 29 1 61 -129 76 -308 222 -592 435 -849
l82 -99 -331 -331 -330 -330 -37 34 c-105 101 -283 335 -391 515 -230 382
-364 780 -418 1245 -20 169 -20 280 0 280 10 0 15 -11 16 -37 2 -34 2 -35 6
-8 3 17 11 34 19 38 19 11 19 93 0 104 -10 5 -16 30 -19 73 l-3 65 -2 -72 c-2
-61 -5 -73 -19 -73 -14 0 -15 13 -10 133 29 608 267 1230 656 1717 112 141
183 218 198 217 7 -1 159 -148 338 -327z m4091 278 c281 -292 544 -745 669
-1153 79 -260 134 -581 135 -787 l0 -78 -469 0 -469 0 -7 78 c-42 508 -207
906 -529 1277 l-50 56 330 330 c181 181 331 329 334 329 3 0 28 -24 56 -52z
m-2743 -50 c-9 -10 -13 -18 -8 -18 4 0 2 -6 -4 -13 -6 -8 -7 -18 -3 -22 4 -5
1 -5 -6 -1 -10 6 -10 11 -1 22 6 8 8 14 4 14 -4 0 -2 6 4 13 6 8 9 16 6 19 -3
2 2 5 10 5 13 0 13 -3 -2 -19z m29 -5 c-6 -2 -10 -8 -7 -13 3 -4 -3 -14 -12
-21 -15 -12 -16 -12 -8 1 6 8 10 18 11 23 1 4 2 9 3 12 0 3 7 5 14 4 9 0 9 -2
-1 -6z m-167 -33 c-13 -14 -13 -18 3 -35 17 -19 17 -19 -5 -1 -16 13 -20 23
-13 31 5 6 8 14 5 17 -3 2 2 5 10 5 13 0 13 -2 0 -17z m-35 -4 c-7 -7 -3 -18
13 -35 l22 -26 -26 23 c-28 24 -34 49 -12 49 9 0 10 -4 3 -11z m-33 -3 c-4 -3
3 -18 15 -32 l23 -26 -27 24 c-24 21 -29 41 -11 41 4 0 3 -3 0 -7z m-37 -18
c-7 -8 -9 -15 -4 -15 4 0 -4 -13 -19 -28 -15 -16 -25 -31 -21 -34 3 -3 1 -9
-4 -12 -14 -8 -9 18 6 36 8 10 8 18 1 25 -8 8 -7 13 0 18 6 3 10 3 9 -2 -2 -4
2 -9 7 -10 6 -2 10 0 10 5 0 10 15 32 22 32 3 0 0 -7 -7 -15z m-125 -55 c-10
-11 -14 -20 -10 -20 5 0 -1 -10 -13 -23 -12 -13 -19 -27 -15 -32 5 -4 2 -5 -5
-1 -11 6 -9 13 7 30 17 18 18 25 8 36 -7 8 -7 10 -1 7 7 -4 17 0 24 8 7 8 15
15 18 15 3 0 -3 -9 -13 -20z m62 2 c-10 -10 -15 -21 -12 -24 3 -3 -5 -13 -17
-24 l-23 -19 19 23 c11 12 15 22 11 22 -4 0 0 9 10 20 10 11 20 20 23 20 3 0
-2 -8 -11 -18z m-145 -45 c-12 -13 -19 -27 -15 -31 13 -13 11 -35 -5 -48 -15
-11 -15 -11 -6 2 9 13 11 34 4 43 -6 8 -7 36 0 32 4 -3 13 2 20 10 7 8 15 15
18 15 3 0 -4 -10 -16 -23z m-43 -14 c-1 -5 0 -10 1 -13 8 -22 6 -41 -8 -52
-13 -11 -14 -11 -7 2 13 21 15 39 4 46 -5 3 -7 10 -4 15 7 11 15 12 14 2z
m-25 -46 c-4 -22 -35 -60 -42 -52 -9 9 -32 -17 -25 -28 4 -6 1 -7 -6 -3 -9 6
-8 13 5 27 9 10 20 16 25 14 10 -7 40 36 33 47 -3 4 -10 5 -16 2 -6 -4 -8 -3
-5 3 11 18 35 11 31 -10z m-28 -14 c-2 -3 -7 -4 -11 -3 -4 1 -20 -11 -36 -26
-24 -23 -27 -30 -16 -43 11 -14 10 -14 -6 -2 -12 9 -14 17 -7 26 6 7 6 15 -1
22 -8 8 -7 13 0 18 6 3 10 2 9 -3 -2 -6 2 -10 7 -10 6 0 9 4 7 10 -1 5 2 7 7
4 5 -4 12 -3 15 2 3 5 12 9 21 9 8 0 13 -2 11 -4z m-91 -32 c3 -5 2 -12 -3
-15 -5 -3 -9 1 -9 9 0 17 3 19 12 6z m4 -45 c9 -10 7 -17 -6 -27 -16 -12 -17
-12 -6 2 10 12 10 18 1 27 -7 7 -9 12 -6 12 3 0 11 -6 17 -14z m-69 -11 c0 -2
-6 -8 -13 -14 -10 -8 -14 -7 -14 2 0 8 6 14 14 14 7 0 13 -1 13 -2z m2706
-342 c65 -72 183 -233 239 -327 154 -262 254 -583 272 -872 l6 -104 -470 0
c-526 0 -483 -7 -483 75 0 23 -11 86 -24 139 -38 149 -98 272 -198 403 l-50
66 329 329 c180 180 332 328 336 328 5 0 24 -17 43 -37z m-1787 -337 c9 -11 9
-16 -1 -22 -7 -4 -10 -4 -6 1 4 4 3 14 -3 22 -6 7 -9 13 -6 13 2 0 10 -6 16
-14z m-40 -3 c-3 -20 2 -26 12 -13 8 12 9 11 7 -5 -2 -12 2 -19 10 -17 8 1 11
-2 7 -9 -5 -7 -15 -3 -31 12 -13 12 -21 26 -18 30 6 11 14 12 13 2z m68 -23
c-2 -11 -6 -22 -9 -26 -4 -3 -5 2 -3 13 2 10 4 21 4 26 1 4 3 7 6 7 3 0 4 -9
2 -20z m-141 -24 c-1 -12 4 -20 10 -19 6 1 11 -5 11 -13 0 -11 -4 -11 -19 3
-10 9 -16 18 -13 21 3 3 0 10 -5 17 -7 8 -5 12 4 12 7 0 13 -10 12 -21z m69 4
c10 -11 16 -20 13 -20 -3 0 -13 9 -23 20 -10 11 -16 20 -13 20 3 0 13 -9 23
-20z m-98 -7 c-4 -3 3 -18 15 -32 l23 -26 -27 24 c-24 21 -29 41 -11 41 4 0 3
-3 0 -7z m-191 -123 c-1 -16 -5 -32 -8 -35 -2 -3 -4 7 -2 22 3 41 4 43 8 43 3
0 3 -13 2 -30z m1424 -266 c95 -138 160 -309 177 -464 l6 -60 -62 0 -61 0 0
79 c0 44 -3 82 -7 84 -5 3 -8 -31 -8 -76 0 -58 -4 -82 -13 -85 -10 -3 -13 5
-12 29 1 19 2 55 1 81 l-1 47 -30 -9 c-17 -5 -33 -9 -35 -9 -6 0 -131 -34
-230 -62 -180 -52 -249 -69 -291 -69 -107 0 -117 0 -113 4 2 3 139 140 303
305 218 219 303 297 312 290 7 -5 35 -44 64 -85z m-3940 -643 c0 -50 20 -284
31 -361 83 -592 343 -1165 726 -1603 37 -43 81 -94 98 -113 l29 -35 -331 -331
-332 -332 -22 20 c-46 40 -245 273 -325 381 -411 550 -671 1171 -773 1843 -25
168 -41 346 -41 468 l0 92 470 0 470 0 0 -29z m4117 -31 c-20 -187 -108 -391
-221 -515 l-37 -40 -127 130 c-70 72 -170 176 -223 230 -53 55 -133 132 -177
170 -44 39 -81 73 -81 78 -1 4 195 7 435 7 l437 0 -6 -60z m1030 -44 c-16
-253 -108 -574 -229 -796 -47 -87 -162 -263 -183 -280 -12 -10 -31 1 -102 58
-49 39 -90 68 -93 65 -3 -2 2 -8 10 -13 8 -4 25 -17 36 -27 24 -20 89 -72 113
-89 13 -10 13 -14 -1 -35 -8 -13 -36 -46 -61 -74 l-46 -50 -331 330 c-325 325
-330 331 -312 350 19 21 75 106 122 185 64 109 130 314 130 407 0 79 -43 73
483 73 l470 0 -6 -104z m1033 26 c0 -84 -21 -281 -44 -414 -64 -367 -210 -745
-416 -1076 -71 -114 -171 -254 -185 -259 -6 -2 -126 90 -269 203 -142 113
-259 204 -261 202 -3 -2 70 -62 163 -135 13 -10 52 -41 85 -68 34 -28 82 -66
107 -85 25 -19 47 -37 50 -40 3 -3 29 -23 58 -45 28 -21 52 -42 52 -45 -1 -10
-75 -99 -162 -194 l-37 -41 -331 331 -331 330 32 35 c17 19 47 53 67 76 l34
43 37 -28 c40 -32 61 -45 61 -39 0 2 -20 18 -45 36 -25 18 -45 36 -45 41 0 5
27 47 59 92 138 194 257 454 316 695 32 127 44 209 61 391 l6 72 469 0 469 0
0 -78z m1027 -79 c-14 -358 -89 -752 -209 -1107 -180 -533 -500 -1069 -876
-1466 l-71 -75 -332 332 -332 332 51 53 c27 29 76 83 107 121 57 66 58 67 79
50 21 -18 21 -18 4 3 -10 11 -18 24 -18 28 0 4 33 53 73 109 266 371 445 788
531 1239 24 124 56 413 56 500 l0 38 472 0 471 0 -6 -157z m-4122 60 c-7 -30
-8 -163 -1 -170 2 -2 11 31 20 74 29 132 26 135 62 -62 l19 -100 5 60 c3 33 1
95 -4 138 -4 43 -6 81 -3 83 6 6 73 -64 143 -150 27 -33 60 -71 74 -86 24 -25
24 -25 5 0 -25 32 114 -99 269 -252 l120 -118 -40 -36 c-86 -80 -232 -158
-350 -188 -80 -21 -84 -20 -85 7 l-2 22 -4 -22 c-2 -13 -9 -23 -15 -23 -11 0
-6 -85 5 -97 6 -6 102 20 197 54 63 22 173 78 237 120 29 20 55 34 57 32 2 -2
83 -105 181 -229 98 -124 204 -256 235 -295 30 -38 80 -101 110 -139 l54 -69
-34 -29 c-50 -42 -197 -132 -309 -188 -127 -65 -254 -113 -376 -143 -144 -36
-148 -37 -156 -7 -7 24 -7 24 -8 3 -1 -13 -5 -23 -11 -23 -11 0 -13 -33 -4
-79 4 -21 11 -30 20 -27 7 3 15 0 18 -7 3 -7 5 -6 5 3 1 11 29 22 99 38 264
63 549 193 751 344 37 28 58 38 67 32 24 -17 567 -708 568 -723 1 -18 -163
-135 -316 -227 -327 -194 -670 -320 -1043 -383 -138 -23 -311 -41 -403 -41
l-63 0 1 458 2 457 -51 3 c-42 2 -51 0 -51 -13 0 -14 -9 -16 -59 -13 -33 2
-57 0 -55 -4 3 -5 11 -8 17 -7 7 1 33 1 60 0 l47 -1 0 -440 0 -440 -57 0 c-92
0 -278 19 -408 41 -481 81 -923 272 -1321 569 -119 90 -284 235 -284 251 0 8
648 659 656 659 2 0 48 -36 102 -81 132 -110 282 -207 437 -284 122 -60 322
-134 408 -150 24 -5 37 -13 38 -24 0 -9 3 -11 5 -4 3 7 11 10 18 7 9 -3 17 10
25 42 7 25 10 49 7 51 -3 3 -24 7 -48 9 -51 3 -224 60 -341 110 -177 77 -390
214 -531 340 l-58 52 333 331 c183 182 335 331 337 331 2 0 32 -22 66 -48 78
-62 149 -105 228 -138 70 -30 197 -73 214 -74 17 0 29 91 14 100 -8 5 -10 20
-7 41 5 32 5 32 -6 -4 -11 -37 -12 -38 -46 -32 -87 16 -243 95 -349 177 -48
37 -52 43 -38 57 122 127 593 598 600 599 4 1 5 -10 1 -25z m1420 -1333 c-10
-11 -42 -39 -72 -62 l-54 -41 -28 34 c-16 19 -135 169 -266 334 -131 165 -248
313 -261 328 l-24 28 31 29 32 28 329 -329 c321 -321 330 -331 313 -349z m708
-748 c-61 -58 -163 -146 -180 -156 -9 -5 -18 -4 -22 1 -3 5 -107 137 -231 292
-124 156 -251 316 -282 356 l-57 73 62 53 c34 30 68 59 75 66 11 11 74 -48
344 -317 l331 -330 -40 -38z m-4178 -103 c327 -293 712 -516 1130 -654 242
-80 512 -130 823 -150 l102 -7 0 -471 0 -470 -147 6 c-833 37 -1633 331 -2298
844 -134 104 -330 275 -349 305 -8 14 42 69 314 342 179 179 330 325 335 326
6 0 47 -32 90 -71z m4504 -152 c12 -15 11 -20 -6 -35 -11 -9 -45 -39 -75 -67
-29 -27 -73 -66 -97 -85 -24 -19 -50 -41 -58 -49 -8 -7 -15 -12 -17 -10 -2 2
-49 61 -104 131 l-101 127 57 48 c31 26 59 50 62 53 3 3 31 29 63 58 l58 54
102 -104 c56 -56 108 -111 116 -121z m-368 -114 c50 -65 98 -124 105 -132 11
-12 26 -3 96 57 88 75 114 98 164 145 l32 29 208 -207 c174 -172 206 -209 198
-223 -19 -30 -215 -202 -349 -305 -664 -512 -1467 -807 -2297 -844 l-148 -6 0
470 0 471 103 7 c408 27 725 99 1076 245 185 76 503 260 656 378 22 17 45 32
52 32 6 0 53 -53 104 -117z"/>
<path d="M3900 7595 l-45 -13 47 2 c31 1 48 5 48 14 0 6 -1 12 -2 11 -2 -1
-23 -7 -48 -14z"/>
<path d="M3785 7565 c-40 -14 -40 -14 -5 -9 19 4 39 10 45 15 11 11 10 11 -40
-6z"/>
<path d="M3947 7549 c4 -13 8 -18 11 -10 2 7 -1 18 -6 23 -8 8 -9 4 -5 -13z"/>
<path d="M3582 7505 c-73 -25 -141 -50 -150 -56 -15 -9 -14 -10 3 -4 11 4 85
29 165 56 80 26 138 48 130 49 -8 0 -75 -20 -148 -45z"/>
<path d="M3961 7504 c0 -11 3 -14 6 -6 3 7 2 16 -1 19 -3 4 -6 -2 -5 -13z"/>
<path d="M3971 7470 c0 -8 6 -40 14 -70 7 -30 14 -46 14 -35 0 11 -6 43 -13
70 -8 28 -14 43 -15 35z"/>
<path d="M3340 7415 c-14 -8 -20 -14 -15 -14 6 0 21 6 35 14 14 8 21 14 15 14
-5 0 -21 -6 -35 -14z"/>
<path d="M3260 7380 c-19 -11 -30 -19 -25 -19 6 0 26 8 45 19 19 11 31 19 25
19 -5 0 -26 -8 -45 -19z"/>
<path d="M3108 7309 c-43 -21 -78 -41 -78 -44 0 -5 159 72 169 81 14 13 -25
-2 -91 -37z"/>
<path d="M4001 7324 c0 -11 3 -14 6 -6 3 7 2 16 -1 19 -3 4 -6 -2 -5 -13z"/>
<path d="M2978 7239 c-21 -11 -38 -22 -38 -24 0 -3 18 4 40 15 22 11 40 23 40
25 0 7 0 7 -42 -16z"/>
<path d="M3725 7201 c-51 -15 -68 -28 -59 -43 8 -13 25 2 18 15 -4 7 -4 9 1 5
4 -4 13 -3 20 2 8 7 12 5 12 -5 0 -8 -3 -13 -5 -10 -3 3 -14 -2 -24 -11 -15
-14 -16 -20 -5 -33 11 -14 10 -14 -5 -2 -10 7 -16 17 -13 21 3 5 1 11 -5 15
-6 4 -8 11 -5 16 7 11 -44 -8 -62 -23 -10 -8 -10 -14 -3 -23 8 -10 8 -15 -1
-21 -7 -4 -9 -3 -5 4 3 6 2 13 -4 17 -6 4 -8 11 -5 16 4 5 1 9 -4 9 -6 0 -11
-4 -11 -8 0 -5 -6 -9 -12 -9 -7 0 -35 -11 -63 -23 -27 -13 -53 -23 -57 -22
-10 2 -10 -12 -1 -21 3 -4 16 1 27 10 20 18 21 17 5 -2 -17 -22 -18 -33 -4
-55 8 -13 7 -13 -8 -1 -9 7 -15 17 -12 21 10 15 -29 38 -52 30 -22 -9 -24 -23
-8 -50 8 -13 7 -13 -8 -1 -9 7 -14 17 -11 22 9 15 -24 10 -40 -6 -8 -9 -18
-16 -21 -15 -3 0 -4 -2 -2 -4 1 -2 -6 -13 -16 -24 -15 -16 -15 -21 -4 -30 14
-12 27 -7 27 10 0 5 -5 6 -12 2 -7 -5 -8 -3 -3 5 5 9 10 10 18 2 7 -7 6 -16
-6 -29 -9 -10 -14 -22 -11 -25 4 -4 13 1 21 11 8 9 11 11 7 3 -5 -9 -3 -12 4
-7 14 8 11 38 -6 58 -9 12 -9 15 3 15 7 0 14 -3 13 -6 0 -3 1 -9 2 -13 1 -5 3
-12 4 -18 0 -5 6 -10 11 -9 6 1 9 6 7 12 -2 6 4 5 12 -3 9 -7 16 -8 16 -2 0
12 -25 34 -32 27 -2 -3 -5 2 -5 10 0 13 2 13 17 0 9 -8 20 -12 25 -8 4 5 5 3
1 -4 -3 -6 -2 -14 3 -17 13 -8 22 19 10 31 -16 16 -19 51 -4 49 8 -1 18 -6 22
-10 4 -4 3 -7 -2 -6 -22 5 -25 -1 -13 -22 7 -13 11 -26 10 -31 -1 -4 15 1 35
12 44 22 161 71 183 76 37 9 80 32 73 41 -4 5 -1 4 6 -3 11 -9 20 -9 41 2 15
8 30 11 34 8 16 -16 4 13 -14 32 -14 15 -16 24 -9 35 9 13 10 13 6 -1 -7 -22
34 -61 52 -50 18 12 18 16 -3 40 -10 11 -23 18 -29 14 -5 -3 -7 -1 -3 5 11 18
-7 19 -59 3z m82 -38 c0 -9 -4 -10 -14 -2 -7 6 -13 12 -13 14 0 1 6 2 13 2 8
0 14 -6 14 -14z m-52 -13 c10 -11 16 -20 13 -20 -3 0 -13 9 -23 20 -10 11 -16
20 -13 20 3 0 13 -9 23 -20z m-113 -7 c-1 -4 6 -15 14 -25 12 -13 13 -17 2
-24 -7 -4 -10 -4 -6 1 4 4 2 15 -4 23 -12 13 -22 49 -11 39 2 -3 5 -9 5 -14z
m-25 0 c-4 -3 1 -15 10 -25 14 -15 14 -19 3 -16 -8 2 -14 -3 -12 -10 1 -8 -2
-11 -8 -7 -8 5 -8 11 0 20 8 9 8 15 0 20 -10 6 -5 25 7 25 4 0 3 -3 0 -7z
m120 -10 c2 -6 -1 -14 -6 -18 -7 -3 -8 0 -5 9 4 11 0 14 -15 11 -12 -2 -19 0
-16 5 7 11 38 6 42 -7z m-234 -45 c-17 -18 -29 -41 -28 -51 2 -9 0 -15 -5 -12
-11 7 -7 29 8 47 6 8 8 19 4 23 -4 5 -2 5 4 2 7 -4 17 0 24 8 7 8 15 15 18 15
3 0 -8 -15 -25 -32z m44 13 c0 -11 -6 -19 -12 -18 -5 1 -9 -4 -7 -10 1 -7 -3
-12 -10 -10 -7 1 -12 -3 -13 -10 0 -6 -3 -14 -7 -18 -17 -18 1 25 22 53 30 37
29 37 27 13z m45 -22 c2 -2 1 -3 -1 -2 -2 2 -9 -2 -16 -7 -8 -7 -12 -5 -12 4
0 12 22 16 29 5z m-161 -66 c13 -16 12 -17 -3 -4 -10 7 -18 15 -18 17 0 8 8 3
21 -13z"/>
<path d="M2883 7184 c-24 -14 -43 -27 -43 -30 0 -6 67 33 85 48 17 15 1 8 -42
-18z"/>
<path d="M4041 7154 c0 -11 3 -14 6 -6 3 7 2 16 -1 19 -3 4 -6 -2 -5 -13z"/>
<path d="M4051 7094 c0 -11 3 -14 6 -6 3 7 2 16 -1 19 -3 4 -6 -2 -5 -13z"/>
<path d="M4061 7054 c0 -11 3 -14 6 -6 3 7 2 16 -1 19 -3 4 -6 -2 -5 -13z"/>
<path d="M4071 7014 c0 -11 3 -14 6 -6 3 7 2 16 -1 19 -3 4 -6 -2 -5 -13z"/>
<path d="M3197 6975 c-32 -17 -58 -36 -58 -41 0 -5 -21 -30 -46 -56 -26 -27
-43 -48 -38 -48 5 0 -4 -13 -20 -30 -16 -16 -24 -30 -18 -30 6 0 16 7 23 15 6
8 15 14 18 13 12 -4 53 23 48 31 -3 4 15 27 39 51 28 27 42 49 40 62 -2 10 0
16 5 13 16 -10 3 -36 -40 -80 -24 -25 -39 -45 -33 -45 6 0 16 7 23 15 7 9 15
13 18 10 3 -3 20 7 39 21 18 14 33 22 33 19 0 -3 10 1 22 9 26 19 31 41 12 57
-13 10 -12 14 2 30 26 29 -1 22 -69 -16z m36 -7 c-6 -7 -9 -20 -8 -30 2 -9
-13 -31 -34 -50 l-36 -33 32 35 c35 38 37 47 20 69 -9 11 -9 13 0 8 6 -4 14
-3 18 3 3 5 9 10 12 10 3 0 1 -6 -4 -12z m23 -33 c1 -8 -5 -20 -14 -27 -15
-11 -15 -11 -6 2 6 8 10 23 8 33 -1 11 0 16 4 13 3 -4 7 -13 8 -21z m-90 0
c-1 -9 -21 -35 -44 -58 -24 -24 -40 -46 -37 -49 3 -3 -3 -11 -12 -19 -16 -13
-17 -12 -4 4 7 9 10 17 5 17 -4 0 14 23 41 50 27 28 46 50 42 50 -5 0 -5 5 -2
10 9 14 14 12 11 -5z"/>
<path d="M4082 6975 c0 -11 4 -33 8 -50 7 -27 8 -27 8 -5 0 14 -4 36 -8 50 -6
20 -8 21 -8 5z"/>
<path d="M3110 6918 c0 -6 -3 -8 -6 -5 -4 3 -15 2 -26 -4 -11 -6 -17 -13 -14
-17 4 -3 -6 -18 -21 -34 -15 -15 -23 -28 -18 -28 5 0 -2 -11 -15 -25 -25 -26
-36 -59 -18 -53 5 2 9 7 8 12 -1 4 11 21 26 37 15 16 24 29 19 29 -5 0 3 13
18 28 15 16 24 32 20 37 -5 4 -3 5 3 2 6 -4 19 2 29 13 10 12 13 20 7 20 -7 0
-12 -5 -12 -12z"/>
<path d="M3025 6874 c-11 -8 -27 -19 -35 -24 -12 -7 -12 -11 -1 -24 7 -9 18
-13 23 -10 5 3 7 9 4 12 -4 3 6 18 21 34 29 30 21 38 -12 12z"/>
<path d="M4101 6874 c0 -11 3 -14 6 -6 3 7 2 16 -1 19 -3 4 -6 -2 -5 -13z"/>
<path d="M4111 6834 c0 -11 3 -14 6 -6 3 7 2 16 -1 19 -3 4 -6 -2 -5 -13z"/>
<path d="M4121 6794 c0 -11 3 -14 6 -6 3 7 2 16 -1 19 -3 4 -6 -2 -5 -13z"/>
<path d="M4131 6754 c0 -11 3 -14 6 -6 3 7 2 16 -1 19 -3 4 -6 -2 -5 -13z"/>
<path d="M4142 6695 c0 -16 2 -22 5 -12 2 9 2 23 0 30 -3 6 -5 -1 -5 -18z"/>
<path d="M4161 6614 c0 -11 3 -14 6 -6 3 7 2 16 -1 19 -3 4 -6 -2 -5 -13z"/>
<path d="M4171 6554 c15 -57 20 -64 14 -20 -2 22 -9 44 -14 49 -7 7 -7 -3 0
-29z"/>
<path d="M4192 6470 c0 -14 2 -19 5 -12 2 6 2 18 0 25 -3 6 -5 1 -5 -13z"/>
<path d="M4205 6411 c7 -47 25 -114 30 -109 2 2 -5 35 -16 73 -10 39 -17 54
-14 36z"/>
<path d="M3939 6114 l-24 -25 29 5 c38 7 50 20 33 34 -11 9 -19 6 -38 -14z"/>
<path d="M4277 6069 c4 -13 8 -18 11 -10 2 7 -1 18 -6 23 -8 8 -9 4 -5 -13z"/>
<path d="M4291 6025 c0 -5 9 -44 20 -85 10 -41 17 -57 14 -35 -5 40 -33 139
-34 120z"/>
<path d="M3431 5846 c-8 -10 -9 -16 -1 -21 6 -3 7 -11 4 -17 -4 -6 2 -6 15 1
24 14 26 24 7 40 -10 8 -16 8 -25 -3z"/>
<path d="M4327 5839 c4 -13 8 -18 11 -10 2 7 -1 18 -6 23 -8 8 -9 4 -5 -13z"/>
<path d="M4341 5794 c0 -11 3 -14 6 -6 3 7 2 16 -1 19 -3 4 -6 -2 -5 -13z"/>
<path d="M4352 5755 c0 -11 3 -29 8 -40 11 -25 11 1 0 35 -6 20 -8 21 -8 5z"/>
<path d="M4371 5654 c0 -11 3 -14 6 -6 3 7 2 16 -1 19 -3 4 -6 -2 -5 -13z"/>
<path d="M4382 5615 c0 -11 3 -29 8 -40 11 -25 11 1 0 35 -6 20 -8 21 -8 5z"/>
<path d="M4401 5534 c0 -11 3 -14 6 -6 3 7 2 16 -1 19 -3 4 -6 -2 -5 -13z"/>
<path d="M4421 5434 c0 -11 3 -14 6 -6 3 7 2 16 -1 19 -3 4 -6 -2 -5 -13z"/>
<path d="M4431 5394 c0 -11 3 -14 6 -6 3 7 2 16 -1 19 -3 4 -6 -2 -5 -13z"/>
<path d="M4441 5354 c0 -11 3 -14 6 -6 3 7 2 16 -1 19 -3 4 -6 -2 -5 -13z"/>
<path d="M4452 5305 c0 -16 2 -22 5 -12 2 9 2 23 0 30 -3 6 -5 -1 -5 -18z"/>
<path d="M4184 5165 c-10 -8 -15 -15 -10 -15 5 0 3 -6 -3 -14 -9 -10 -9 -16
-1 -21 8 -5 7 -11 -2 -22 -15 -19 -20 -45 -6 -41 5 2 8 6 6 10 -2 3 5 15 15
26 13 14 15 22 7 27 -8 5 -8 11 -1 19 6 7 7 17 3 21 -4 5 -2 5 5 1 13 -7 28
10 15 18 -5 3 -18 -1 -28 -9z"/>
<path d="M4500 5076 c8 -35 17 -63 19 -60 6 6 -21 124 -28 124 -4 0 0 -29 9
-64z"/>
<path d="M4521 4990 c0 -8 6 -37 13 -65 8 -27 15 -43 15 -35 0 8 -6 38 -13 65
-8 28 -15 43 -15 35z"/>
<path d="M4551 4854 c0 -11 3 -14 6 -6 3 7 2 16 -1 19 -3 4 -6 -2 -5 -13z"/>
<path d="M4561 4814 c0 -11 3 -14 6 -6 3 7 2 16 -1 19 -3 4 -6 -2 -5 -13z"/>
<path d="M4571 4765 c0 -5 6 -35 14 -65 7 -30 13 -44 13 -30 0 24 -25 115 -27
95z"/>
<path d="M4601 4624 c0 -11 3 -14 6 -6 3 7 2 16 -1 19 -3 4 -6 -2 -5 -13z"/>
<path d="M4612 4580 c0 -14 2 -19 5 -12 2 6 2 18 0 25 -3 6 -5 1 -5 -13z"/>
<path d="M5555 6599 c-10 -30 -2 -32 12 -3 6 13 7 24 3 24 -5 0 -12 -9 -15
-21z"/>
<path d="M5635 6592 c13 -12 167 -73 172 -68 2 2 -15 11 -39 21 -114 46 -142
56 -133 47z"/>
<path d="M5535 6543 c-30 -76 -75 -207 -72 -210 2 -2 23 47 45 109 23 62 40
114 38 116 -2 1 -7 -5 -11 -15z"/>
<path d="M5820 6515 c0 -7 61 -37 66 -33 2 3 -12 12 -31 21 -19 9 -35 15 -35
12z"/>
<path d="M5907 6469 c7 -7 15 -10 18 -7 3 3 -2 9 -12 12 -14 6 -15 5 -6 -5z"/>
<path d="M5945 6453 c6 -6 37 -26 70 -44 33 -18 56 -28 50 -22 -5 5 -37 25
-70 43 -33 18 -55 28 -50 23z"/>
<path d="M6100 6361 c14 -11 30 -21 35 -21 11 0 -7 14 -40 31 -13 7 -12 3 5
-10z"/>
<path d="M6151 6327 c2 -2 22 -15 44 -31 l40 -27 -35 30 c-19 17 -39 31 -44
31 -5 0 -7 -1 -5 -3z"/>
<path d="M6258 6253 c17 -14 21 -24 16 -38 -7 -18 -6 -18 9 -6 24 19 22 24
-15 45 -32 17 -33 17 -10 -1z"/>
<path d="M5346 6039 c-9 -28 -16 -53 -14 -55 2 -2 12 19 22 47 10 27 17 52 14
54 -2 2 -12 -19 -22 -46z"/>
<path d="M5316 5955 c-9 -26 -7 -32 5 -12 6 10 9 21 6 23 -2 3 -7 -2 -11 -11z"/>
<path d="M5241 5754 c-34 -92 -60 -168 -58 -170 2 -2 32 71 66 162 34 92 60
168 58 170 -2 2 -32 -71 -66 -162z"/>
<path d="M5156 5527 c-23 -61 -19 -72 5 -13 11 27 18 50 16 53 -2 2 -12 -16
-21 -40z"/>
<path d="M5117 5418 c-9 -23 -15 -43 -13 -45 2 -2 11 15 20 38 9 23 15 43 13
45 -2 2 -11 -15 -20 -38z"/>
<path d="M5086 5345 c-3 -9 -6 -22 -5 -28 0 -7 5 -1 10 12 5 13 8 26 5 28 -2
2 -6 -3 -10 -12z"/>
<path d="M5062 5275 c-17 -37 -14 -45 4 -12 9 16 14 31 11 33 -2 2 -9 -7 -15
-21z"/>
<path d="M4971 5029 c-11 -34 -19 -64 -17 -66 2 -2 13 24 25 58 11 34 19 64
17 66 -2 2 -13 -24 -25 -58z"/>
<path d="M4921 4894 c-12 -31 -20 -59 -18 -61 2 -2 14 22 26 53 12 31 20 59
18 61 -2 2 -14 -22 -26 -53z"/>
<path d="M4876 4777 c-23 -61 -19 -72 5 -13 11 27 18 50 16 53 -2 2 -12 -16
-21 -40z"/>
<path d="M4826 4639 c-15 -39 -25 -73 -23 -76 2 -2 16 29 31 69 14 39 24 73
22 75 -2 2 -15 -29 -30 -68z"/>
<path d="M4771 4494 c-11 -31 -21 -61 -21 -67 1 -7 12 17 26 52 13 35 23 66
21 68 -2 2 -14 -22 -26 -53z"/>
<path d="M1960 5542 c1 -8 140 -75 146 -70 2 2 -30 21 -71 41 -41 20 -75 33
-75 29z"/>
<path d="M1943 5503 c-3 -10 -8 -22 -11 -27 -3 -5 0 -6 5 -3 11 7 25 47 17 47
-3 0 -7 -8 -11 -17z"/>
<path d="M2140 5455 c0 -7 101 -57 106 -53 2 2 -21 16 -51 31 -30 15 -55 25
-55 22z"/>
<path d="M2290 5380 c19 -11 40 -19 45 -19 6 0 -6 8 -25 19 -19 11 -39 19 -45
19 -5 0 6 -8 25 -19z"/>
<path d="M1881 5359 c-6 -18 -9 -34 -7 -36 2 -2 9 10 15 28 6 18 9 34 7 36 -2
2 -9 -10 -15 -28z"/>
<path d="M2350 5355 c0 -7 101 -57 106 -53 2 2 -21 16 -51 31 -30 15 -55 25
-55 22z"/>
<path d="M1856 5295 c-9 -26 -7 -32 5 -12 6 10 9 21 6 23 -2 3 -7 -2 -11 -11z"/>
<path d="M2470 5296 c0 -6 192 -97 196 -93 2 2 -38 23 -89 47 -50 24 -95 45
-99 47 -5 2 -8 2 -8 -1z"/>
<path d="M1836 5245 c-3 -9 -6 -22 -5 -28 0 -7 5 -1 10 12 5 13 8 26 5 28 -2
2 -6 -3 -10 -12z"/>
<path d="M1821 5193 c-1 -6 -4 -20 -7 -30 -5 -17 -5 -17 6 0 6 10 9 23 6 30
-3 9 -5 9 -5 0z"/>
<path d="M2680 5195 c0 -7 61 -37 66 -33 2 3 -12 12 -31 21 -19 9 -35 15 -35
12z"/>
<path d="M1792 5101 c-7 -21 -12 -45 -11 -52 0 -8 7 8 15 35 9 26 13 50 11 52
-2 2 -9 -13 -15 -35z"/>
<path d="M2890 5095 c0 -7 81 -47 86 -43 2 3 -17 14 -41 26 -25 12 -45 20 -45
17z"/>
<path d="M3070 5005 c38 -23 213 -106 216 -102 4 3 -208 108 -231 115 -5 2 1
-4 15 -13z"/>
<path d="M1756 4969 c-8 -42 0 -50 9 -9 4 17 5 34 2 36 -2 3 -7 -10 -11 -27z"/>
<path d="M1735 4880 c-4 -23 -5 -43 -2 -46 2 -3 7 14 11 37 4 23 5 44 2 46 -2
2 -7 -14 -11 -37z"/>
<path d="M3300 4895 c0 -7 61 -37 66 -33 2 3 -12 12 -31 21 -19 9 -35 15 -35
12z"/>
<path d="M3390 4850 c35 -24 54 -31 30 -11 -14 11 -29 21 -35 21 -5 0 -3 -5 5
-10z"/>
<path d="M3470 4815 c0 -7 101 -57 106 -53 2 2 -21 16 -51 31 -30 15 -55 25
-55 22z"/>
<path d="M1721 4794 c0 -11 3 -14 6 -6 3 7 2 16 -1 19 -3 4 -6 -2 -5 -13z"/>
<path d="M1701 4685 c-7 -50 -11 -100 -8 -110 3 -12 5 -6 6 16 0 19 6 61 12
93 5 31 9 65 7 74 -2 9 -10 -24 -17 -73z"/>
<path d="M3597 4749 c7 -7 15 -10 18 -7 3 3 -2 9 -12 12 -14 6 -15 5 -6 -5z"/>
<path d="M3658 4720 c42 -26 56 -26 17 0 -16 11 -34 20 -40 20 -5 0 5 -9 23
-20z"/>
<path d="M3834 4636 c11 -9 24 -16 30 -16 12 0 7 5 -24 19 -24 11 -24 11 -6
-3z"/>
<path d="M3880 4615 c0 -2 33 -19 73 -39 39 -20 61 -28 47 -17 -23 19 -120 64
-120 56z"/>
<path d="M4050 4530 c0 -6 7 -10 15 -10 8 0 15 2 15 4 0 2 -7 6 -15 10 -8 3
-15 1 -15 -4z"/>
<path d="M1683 4485 c0 -27 2 -38 4 -22 2 15 2 37 0 50 -2 12 -4 0 -4 -28z"/>
<path d="M4090 4515 c0 -7 61 -37 66 -33 2 3 -12 12 -31 21 -19 9 -35 15 -35
12z"/>
<path d="M4170 4475 c0 -6 122 -65 134 -65 6 0 -2 7 -19 16 -43 23 -115 54
-115 49z"/>
<path d="M4340 4395 c0 -7 61 -37 66 -33 2 3 -12 12 -31 21 -19 9 -35 15 -35
12z"/>
<path d="M4420 4356 c0 -3 14 -12 30 -21 17 -9 30 -13 30 -11 0 3 -13 12 -30
21 -16 9 -30 13 -30 11z"/>
<path d="M4338 4143 c6 -2 18 -2 25 0 6 3 1 5 -13 5 -14 0 -19 -2 -12 -5z"/>
<path d="M4278 4133 c6 -2 18 -2 25 0 6 3 1 5 -13 5 -14 0 -19 -2 -12 -5z"/>
<path d="M4235 4015 c-137 -68 -247 -124 -244 -124 4 -1 121 55 260 123 140
69 250 124 244 125 -5 0 -122 -56 -260 -124z"/>
<path d="M4170 4119 c-24 -7 -24 -7 5 -7 17 0 44 4 60 8 l30 8 -35 -1 c-19 0
-46 -4 -60 -8z"/>
<path d="M4115 4110 c-16 -7 -17 -9 -3 -9 9 -1 20 4 23 9 7 11 7 11 -20 0z"/>
<path d="M4007 4093 c-43 -9 -76 -17 -73 -20 7 -7 146 19 152 29 3 4 4 7 2 7
-2 -1 -38 -8 -81 -16z"/>
<path d="M3890 4070 l-25 -8 28 -1 c15 -1 27 4 27 9 0 6 -1 10 -2 9 -2 -1 -14
-5 -28 -9z"/>
<path d="M3662 4060 c-18 -4 -36 -10 -39 -14 -8 -7 47 -189 81 -268 6 -13 -2
-22 -31 -37 -21 -11 -34 -20 -30 -21 4 0 21 7 37 15 17 9 30 11 30 5 0 -15 25
-12 65 7 24 11 34 22 30 32 -3 8 0 19 7 24 9 6 8 7 -5 3 -14 -4 -22 5 -38 42
-33 76 -56 174 -42 179 8 3 7 10 -5 24 -9 10 -19 19 -22 18 -3 -1 -20 -5 -38
-9z"/>
<path d="M3830 4060 c-23 -7 -23 -8 -3 -9 12 -1 25 4 28 9 3 6 5 10 3 9 -2 -1
-14 -5 -28 -9z"/>
<path d="M1683 4005 c0 -27 2 -38 4 -22 2 15 2 37 0 50 -2 12 -4 0 -4 -28z"/>
<path d="M3763 4043 c9 -2 23 -2 30 0 6 3 -1 5 -18 5 -16 0 -22 -2 -12 -5z"/>
<path d="M3515 4005 l-50 -14 45 6 c25 3 49 9 55 14 5 5 7 9 5 8 -3 0 -27 -7
-55 -14z"/>
<path d="M3588 4013 c7 -3 16 -2 19 1 4 3 -2 6 -13 5 -11 0 -14 -3 -6 -6z"/>
<path d="M3370 3980 c-19 -5 -95 -19 -167 -31 -73 -13 -131 -25 -128 -27 2 -3
62 5 132 18 192 33 261 48 228 48 -16 0 -46 -4 -65 -8z"/>
<path d="M4309 3949 l-24 -20 28 17 c15 9 27 18 27 20 0 8 -8 4 -31 -17z"/>
<path d="M1692 3900 c-2 -30 25 -210 32 -217 6 -6 76 11 76 18 0 4 -14 3 -32
-2 -17 -5 -33 -7 -35 -5 -4 4 -30 154 -36 206 l-4 35 -1 -35z"/>
<path d="M3025 3920 l-30 -8 33 -1 c17 0 32 4 32 9 0 6 -1 9 -2 9 -2 -1 -16
-5 -33 -9z"/>
<path d="M4211 3885 c-63 -44 -90 -66 -61 -50 25 14 130 88 130 91 0 7 -4 4
-69 -41z"/>
<path d="M2910 3900 c-19 -4 -55 -11 -79 -14 -24 -3 -47 -8 -50 -11 -3 -3 17
-3 45 1 68 8 175 32 144 32 -14 0 -41 -4 -60 -8z"/>
<path d="M3960 3880 c-9 -6 -10 -10 -3 -10 6 0 15 5 18 10 8 12 4 12 -15 0z"/>
<path d="M2733 3863 c9 -2 23 -2 30 0 6 3 -1 5 -18 5 -16 0 -22 -2 -12 -5z"/>
<path d="M3858 3834 c-39 -21 -35 -28 5 -8 37 19 44 24 31 24 -5 -1 -21 -8
-36 -16z"/>
<path d="M2420 3815 c-36 -8 -85 -16 -110 -20 -50 -7 -66 -15 -29 -14 34 0
260 47 229 47 -14 0 -54 -6 -90 -13z"/>
<path d="M4016 3755 c-96 -65 -161 -115 -116 -89 29 16 205 137 220 150 27 26
5 13 -104 -61z"/>
<path d="M2220 3780 l-25 -8 28 -1 c15 -1 27 4 27 9 0 6 -1 10 -2 9 -2 -1 -14
-5 -28 -9z"/>
<path d="M2085 3755 c-33 -7 -49 -13 -35 -13 14 -1 52 5 85 12 33 8 49 14 35
14 -14 0 -52 -6 -85 -13z"/>
<path d="M1990 3740 l-25 -8 28 -1 c15 -1 27 4 27 9 0 6 -1 10 -2 9 -2 -1 -14
-5 -28 -9z"/>
<path d="M1880 3720 c-87 -21 -77 -25 16 -8 35 6 64 15 64 20 0 4 -1 7 -2 7
-2 -1 -37 -10 -78 -19z"/>
<path d="M3585 3700 c-3 -6 1 -7 9 -4 18 7 21 14 7 14 -6 0 -13 -4 -16 -10z"/>
<path d="M3410 3615 c-58 -30 -100 -54 -95 -54 6 0 57 24 115 54 58 30 101 54
95 54 -5 0 -57 -24 -115 -54z"/>
<path d="M3255 3540 c-3 -6 1 -7 9 -4 18 7 21 14 7 14 -6 0 -13 -4 -16 -10z"/>
<path d="M3175 3503 c-27 -14 -51 -27 -53 -28 -6 -5 88 -246 103 -263 4 -4
465 308 465 314 0 3 -104 -65 -230 -150 l-230 -154 -24 51 c-13 29 -35 85 -49
124 l-27 73 58 29 c31 17 53 30 47 30 -5 0 -32 -12 -60 -26z"/>
<path d="M5531 4454 c0 -11 3 -14 6 -6 3 7 2 16 -1 19 -3 4 -6 -2 -5 -13z"/>
<path d="M5455 4445 c-39 -14 -40 -14 -5 -8 41 7 82 22 60 22 -8 0 -33 -7 -55
-14z"/>
<path d="M5348 4413 c6 -2 18 -2 25 0 6 3 1 5 -13 5 -14 0 -19 -2 -12 -5z"/>
<path d="M5255 4390 c-27 -10 -43 -18 -35 -18 8 0 38 8 65 18 28 10 43 18 35
18 -8 0 -37 -8 -65 -18z"/>
<path d="M5168 4363 c6 -2 18 -2 25 0 6 3 1 5 -13 5 -14 0 -19 -2 -12 -5z"/>
<path d="M5075 4340 c-13 -5 -14 -9 -5 -9 8 0 24 4 35 9 13 5 14 9 5 9 -8 0
-24 -4 -35 -9z"/>
<path d="M4988 4313 c6 -2 18 -2 25 0 6 3 1 5 -13 5 -14 0 -19 -2 -12 -5z"/>
<path d="M4915 4295 c-40 -14 -40 -14 -5 -8 19 3 42 9 50 14 22 12 1 9 -45 -6z"/>
<path d="M5020 3966 c0 -4 90 -79 170 -143 134 -106 261 -203 256 -195 -3 6
-75 64 -159 130 -83 67 -178 141 -209 166 -32 26 -58 44 -58 42z"/>
<path d="M5572 3525 c15 -16 29 -27 31 -24 3 2 -10 15 -27 28 l-31 24 27 -28z"/>
<path d="M5640 3469 c14 -13 50 -43 80 -65 30 -23 65 -50 76 -60 12 -11 36
-30 54 -44 38 -28 93 -72 100 -80 12 -13 80 -61 80 -56 0 5 -377 307 -399 320
-9 4 -5 -2 9 -15z"/>
<path d="M6040 3152 c0 -4 10 -13 23 -21 22 -14 22 -14 3 8 -20 22 -26 25 -26
13z"/>
<path d="M6465 2813 c11 -11 34 -28 50 -38 l30 -18 -30 27 c-16 14 -39 31 -50
37 -20 11 -20 11 0 -8z"/>
<path d="M7200 2231 c0 -6 4 -11 8 -11 5 0 17 -8 28 -17 10 -10 45 -38 77 -63
32 -25 68 -52 79 -61 20 -16 19 -17 -38 -85 -81 -95 -105 -122 -136 -155 -16
-15 -28 -31 -28 -36 0 -12 230 246 230 259 0 2 -30 29 -67 58 -38 30 -87 69
-110 88 -24 19 -43 29 -43 23z"/>
<path d="M4595 3885 c-9 -42 -15 -79 -12 -81 2 -2 11 30 21 72 9 42 15 79 12
81 -2 2 -11 -30 -21 -72z"/>
<path d="M4752 3880 c0 -14 2 -19 5 -12 2 6 2 18 0 25 -3 6 -5 1 -5 -13z"/>
<path d="M4762 3830 c0 -14 4 -36 8 -50 6 -20 8 -21 8 -5 0 11 -4 34 -8 50 -7
27 -8 27 -8 5z"/>
<path d="M5012 3778 c19 -24 85 -107 147 -185 62 -79 115 -143 118 -143 4 0
-1 8 -9 18 -8 9 -74 92 -147 185 -73 92 -136 167 -138 167 -3 0 10 -19 29 -42z"/>
<path d="M4575 3779 c-4 -6 -5 -12 -2 -15 2 -3 7 2 10 11 7 17 1 20 -8 4z"/>
<path d="M4562 3730 c0 -14 2 -19 5 -12 2 6 2 18 0 25 -3 6 -5 1 -5 -13z"/>
<path d="M4782 3735 c-1 -11 3 -38 7 -60 7 -34 9 -35 9 -10 0 35 -15 101 -16
70z"/>
<path d="M4551 3684 c0 -11 3 -14 6 -6 3 7 2 16 -1 19 -3 4 -6 -2 -5 -13z"/>
<path d="M4535 3620 c-4 -23 -5 -43 -2 -46 2 -3 7 14 11 37 4 23 5 44 2 46 -2
2 -7 -14 -11 -37z"/>
<path d="M4798 3603 c5 -21 7 -23 10 -9 2 10 0 22 -6 28 -6 6 -7 0 -4 -19z"/>
<path d="M4811 3554 c0 -11 3 -14 6 -6 3 7 2 16 -1 19 -3 4 -6 -2 -5 -13z"/>
<path d="M4521 3544 c0 -11 3 -14 6 -6 3 7 2 16 -1 19 -3 4 -6 -2 -5 -13z"/>
<path d="M4501 3464 c-7 -30 -11 -57 -8 -60 2 -2 9 21 16 52 7 30 11 57 8 60
-2 2 -9 -21 -16 -52z"/>
<path d="M4822 3500 c0 -14 4 -38 8 -55 7 -27 8 -27 8 -5 0 14 -4 39 -8 55 -7
27 -8 27 -8 5z"/>
<path d="M4482 3370 c0 -14 2 -19 5 -12 2 6 2 18 0 25 -3 6 -5 1 -5 -13z"/>
<path d="M4842 3370 c0 -14 2 -19 5 -12 2 6 2 18 0 25 -3 6 -5 1 -5 -13z"/>
<path d="M4852 3320 c0 -14 2 -19 5 -12 2 6 2 18 0 25 -3 6 -5 1 -5 -13z"/>
<path d="M4431 3134 c0 -11 3 -14 6 -6 3 7 2 16 -1 19 -3 4 -6 -2 -5 -13z"/>
<path d="M4421 3094 c0 -11 3 -14 6 -6 3 7 2 16 -1 19 -3 4 -6 -2 -5 -13z"/>
<path d="M4892 3090 c0 -14 2 -19 5 -12 2 6 2 18 0 25 -3 6 -5 1 -5 -13z"/>
<path d="M4411 3054 c0 -11 3 -14 6 -6 3 7 2 16 -1 19 -3 4 -6 -2 -5 -13z"/>
<path d="M4902 3040 c0 -14 2 -19 5 -12 2 6 2 18 0 25 -3 6 -5 1 -5 -13z"/>
<path d="M4395 2990 c-4 -23 -5 -43 -2 -46 2 -3 7 14 11 37 4 23 5 44 2 46 -2
2 -7 -14 -11 -37z"/>
<path d="M4912 2990 c0 -14 4 -38 8 -55 7 -27 8 -27 8 -5 0 14 -4 39 -8 55 -7
27 -8 27 -8 5z"/>
<path d="M4381 2914 c0 -11 3 -14 6 -6 3 7 2 16 -1 19 -3 4 -6 -2 -5 -13z"/>
<path d="M4932 2880 c0 -14 2 -19 5 -12 2 6 2 18 0 25 -3 6 -5 1 -5 -13z"/>
<path d="M4357 2819 c-10 -41 -17 -81 -16 -89 0 -8 9 21 20 64 11 44 18 84 16
89 -1 5 -11 -24 -20 -64z"/>
<path d="M4942 2820 c0 -14 2 -19 5 -12 2 6 2 18 0 25 -3 6 -5 1 -5 -13z"/>
<path d="M4952 2760 c0 -14 2 -19 5 -12 2 6 2 18 0 25 -3 6 -5 1 -5 -13z"/>
<path d="M4962 2710 c0 -14 4 -36 8 -50 6 -20 8 -21 8 -5 0 11 -4 34 -8 50 -7
27 -8 27 -8 5z"/>
<path d="M4331 2684 c0 -11 3 -14 6 -6 3 7 2 16 -1 19 -3 4 -6 -2 -5 -13z"/>
<path d="M4307 2591 c-10 -40 -17 -81 -16 -90 0 -9 9 20 20 64 10 44 17 85 15
90 -1 6 -10 -23 -19 -64z"/>
<path d="M4981 2594 c0 -11 3 -14 6 -6 3 7 2 16 -1 19 -3 4 -6 -2 -5 -13z"/>
<path d="M4988 2543 c5 -21 7 -23 10 -9 2 10 0 22 -6 28 -6 6 -7 0 -4 -19z"/>
<path d="M4998 2483 c5 -21 7 -23 10 -9 2 10 0 22 -6 28 -6 6 -7 0 -4 -19z"/>
<path d="M4281 2464 c0 -11 3 -14 6 -6 3 7 2 16 -1 19 -3 4 -6 -2 -5 -13z"/>
<path d="M5012 2425 c0 -16 2 -22 5 -12 2 9 2 23 0 30 -3 6 -5 -1 -5 -18z"/>
<path d="M4262 2391 c-7 -29 -12 -60 -11 -69 0 -9 7 10 15 42 8 33 13 64 11
69 -2 6 -8 -14 -15 -42z"/>
<path d="M5017 2369 c4 -13 8 -18 11 -10 2 7 -1 18 -6 23 -8 8 -9 4 -5 -13z"/>
<path d="M5028 2313 c5 -21 7 -23 10 -9 2 10 0 22 -6 28 -6 6 -7 0 -4 -19z"/>
<path d="M4241 2284 c0 -11 3 -14 6 -6 3 7 2 16 -1 19 -3 4 -6 -2 -5 -13z"/>
<path d="M4201 2114 c-1 -18 9 -22 103 -37 97 -16 175 -22 165 -13 -2 2 -31 7
-64 10 -126 13 -194 29 -198 45 -3 11 -5 10 -6 -5z"/>
<path d="M5005 2094 c-33 -7 -91 -16 -130 -20 -78 -7 -98 -14 -41 -14 56 0
246 32 246 42 0 9 4 10 -75 -8z"/>
</g>
</svg>
