<?xml version="1.0" standalone="no"?>
<!DOCTYPE svg PUBLIC "-//W3C//DTD SVG 20010904//EN"
 "http://www.w3.org/TR/2001/REC-SVG-20010904/DTD/svg10.dtd">
<svg version="1.0" xmlns="http://www.w3.org/2000/svg"
 width="419.000000pt" height="419.000000pt" viewBox="0 0 419.000000 419.000000"
 preserveAspectRatio="xMidYMid meet">

<g transform="translate(0.000000,419.000000) scale(0.100000,-0.100000)"
fill="#000000" stroke="none">
<path d="M1940 4045 c-8 -2 -49 -9 -90 -15 -168 -27 -396 -123 -550 -231 -41
-29 -122 -100 -180 -158 -196 -198 -315 -420 -376 -701 -26 -119 -26 -420 -1
-537 143 -658 698 -1113 1357 -1113 659 0 1214 455 1357 1113 25 117 25 418
-1 537 -60 280 -185 510 -380 706 -56 55 -135 124 -176 153 -141 100 -339 186
-516 226 -63 15 -403 30 -444 20z m408 -85 c472 -93 845 -420 997 -873 47
-142 66 -258 66 -417 0 -357 -131 -673 -385 -926 -190 -189 -408 -306 -681
-366 -80 -17 -410 -17 -490 0 -273 60 -491 177 -681 366 -254 253 -385 569
-385 926 0 159 18 274 66 417 112 335 344 602 663 762 133 67 299 113 482 135
67 8 252 -5 348 -24z"/>
<path d="M1630 2774 c-81 -11 -201 -38 -285 -66 -121 -40 -475 -191 -475 -203
0 -11 24 -116 37 -163 l15 -53 146 3 147 3 3 78 3 77 149 0 c88 0 151 4 155
10 4 6 70 10 165 10 l159 0 3 -57 3 -58 152 -3 152 -3 3 -97 3 -97 152 -3 152
-3 3 -82 3 -82 147 -3 147 -3 3 -52 3 -52 136 -3 135 -3 43 58 c86 116 193
326 174 343 -4 4 -46 17 -93 29 -142 38 -314 105 -611 237 -296 131 -458 191
-594 219 -80 17 -269 27 -335 19z"/>
<path d="M1550 2000 c0 -247 1 -450 3 -450 2 0 50 -18 108 -39 57 -21 119 -42
137 -46 l32 -7 0 496 0 496 -140 0 -140 0 0 -450z"/>
<path d="M1242 2098 l3 -333 83 -66 c45 -37 110 -81 142 -98 l60 -32 0 430 0
431 -145 0 -145 0 2 -332z"/>
<path d="M1850 1891 l0 -438 38 -7 c20 -4 85 -9 145 -13 l107 -6 0 452 0 451
-145 0 -145 0 0 -439z"/>
<path d="M940 2242 c0 -62 133 -288 234 -398 l45 -49 1 238 0 237 -140 0 -140
0 0 -28z"/>
<path d="M2160 1779 l0 -351 65 7 c36 4 100 15 142 24 l78 16 3 328 2 327
-145 0 -145 0 0 -351z"/>
<path d="M2470 1725 c0 -146 4 -235 10 -235 18 0 160 60 215 91 l55 31 0 174
0 174 -140 0 -140 0 0 -235z"/>
<path d="M2770 1740 c0 -60 3 -110 7 -110 13 0 149 110 203 164 l54 56 -132 0
-132 0 0 -110z"/>
<path d="M1920 940 l0 -290 25 0 c21 0 25 5 25 30 l0 29 26 -24 c74 -68 214
-50 270 34 30 46 40 113 25 169 -33 120 -195 171 -287 90 l-34 -30 0 141 0
141 -25 0 -25 0 0 -290z m271 9 c27 -19 59 -84 59 -119 0 -37 -32 -100 -63
-122 -42 -30 -113 -30 -155 1 -41 29 -62 70 -62 121 0 118 126 186 221 119z"/>
<path d="M860 1013 c-39 -12 -63 -30 -76 -55 -36 -69 -3 -115 104 -147 38 -12
75 -28 82 -36 37 -44 -40 -108 -103 -85 -17 6 -41 19 -52 30 -21 20 -22 20
-39 1 -16 -18 -15 -20 14 -44 84 -71 240 -25 240 72 0 56 -38 89 -125 110 -81
20 -107 58 -66 95 29 26 85 25 115 -3 23 -21 26 -22 47 -8 l22 16 -27 24 c-34
31 -93 45 -136 30z"/>
<path d="M1205 1008 c-37 -13 -82 -53 -102 -92 -19 -37 -19 -135 0 -172 29
-56 103 -104 159 -104 43 0 99 21 130 49 32 28 32 28 10 40 -18 10 -26 8 -44
-9 -76 -70 -218 -19 -218 80 0 19 5 20 145 20 l145 0 0 33 c0 112 -117 192
-225 155z m127 -50 c20 -10 48 -59 48 -83 0 -13 -18 -15 -120 -15 -112 0 -120
1 -120 19 0 29 47 80 83 90 33 9 80 4 109 -11z"/>
<path d="M1615 1013 c-41 -10 -85 -36 -85 -49 0 -20 27 -29 45 -14 24 20 83
29 121 18 27 -7 39 -18 50 -43 8 -19 14 -38 14 -43 0 -5 -31 -12 -70 -15 -79
-7 -153 -35 -169 -65 -17 -33 -13 -87 9 -115 45 -56 146 -59 200 -5 l30 30 0
-31 c0 -25 4 -31 23 -31 22 0 22 1 19 137 -3 162 -13 193 -73 217 -39 16 -74
18 -114 9z m140 -193 c11 -18 -7 -79 -31 -103 -30 -30 -73 -40 -114 -26 -50
18 -66 71 -32 102 32 29 163 49 177 27z"/>
<path d="M2495 1008 c-50 -18 -82 -46 -104 -91 -73 -151 57 -310 218 -267 99
26 154 127 126 232 -27 104 -138 162 -240 126z m97 -38 c20 -6 50 -26 67 -46
27 -30 31 -42 31 -92 0 -79 -30 -121 -100 -142 -73 -21 -151 29 -166 105 -17
93 35 169 126 184 3 1 22 -4 42 -9z"/>
<path d="M3225 1007 c-17 -8 -36 -21 -44 -30 -19 -24 -31 -21 -31 8 0 18 -5
25 -20 25 -19 0 -20 -7 -20 -180 l0 -180 25 0 25 0 0 121 c0 95 4 127 17 149
35 59 119 73 160 25 21 -24 23 -35 23 -161 l0 -134 25 0 25 0 0 136 c0 145
-10 187 -50 212 -32 19 -101 24 -135 9z"/>
<path d="M2840 830 l0 -180 24 0 c24 0 24 1 28 123 4 156 23 188 118 199 14 2
26 11 28 21 3 14 -4 17 -33 17 -42 0 -73 -14 -97 -44 -17 -21 -18 -21 -18 12
0 27 -4 32 -25 32 l-25 0 0 -180z"/>
</g>
</svg>
